<svg  version="1.1" id="_x32_" xmlns="http://www.w3.org/2000/svg" xmlns:xlink="http://www.w3.org/1999/xlink" 
	 viewBox="0 0 512 512"  xml:space="preserve">

<g>
	<path class="st0" d="M433.803,171.939c-2.142-3.556-4.324-7.127-6.72-10.714c-11.636-17.458-26.107-35.154-43.181-52.22
		c-22.65-22.65-46.637-40.976-69.525-53.804c-11.483-6.366-22.728-11.482-33.503-15.015c-10.776-3.465-21.237-5.507-31.222-5.507
		c-6.529,0-12.903,0.86-19.033,2.987c-6.06,2.043-11.882,5.507-16.598,10.223l-24.778,24.778l-13.087,13.088
		c-34.372-8.011-66.86-13.318-94.749-13.349C65.039,72.421,50.17,74.21,37.19,78.834c-12.926,4.57-24.202,12.389-31.33,24.002
		C2.043,108.98-0.023,115.97,0,122.913c0,7.396,2.227,14.502,5.791,20.984c6.298,11.352,16.544,21.352,29.617,30.976
		c19.639,14.354,45.961,27.726,76.438,39.731c30.461,11.982,65.032,22.52,100.901,30.715L218,222.324v-0.008
		c-52.997-12.09-103.166-29.579-139.312-48.542c-18.057-9.448-32.582-19.324-42.006-28.495c-4.716-4.57-8.126-8.941-10.208-12.75
		c-2.104-3.833-2.872-6.967-2.88-9.617c0.031-2.511,0.606-4.816,2.35-7.696c3.848-6.183,9.839-10.784,19.187-14.163
		c9.285-3.349,21.682-5.069,36.276-5.054c21.283-0.023,47.105,3.618,74.986,9.525l-13.311,13.31l-46.33,46.322
		c9.516,4.638,19.977,9.125,31.068,13.449l78.734-78.735c2.888,14.532,9.202,30.124,18.265,46.414
		c12.626,22.543,30.684,46.252,53.134,68.711c22.458,22.45,46.168,40.5,68.711,53.135c16.406,9.132,32.098,15.484,46.722,18.341
		L240.996,438.465l0.868-0.944c-2.435,2.519-5.661,4.485-9.986,5.975c-4.247,1.498-9.601,2.366-15.891,2.366
		c-14.078,0.077-32.558-4.562-51.99-14.078c-19.425-9.516-39.871-23.91-58.673-42.627c-18.948-18.956-33.58-39.878-43.335-59.779
		c-9.831-19.901-14.623-38.849-14.547-53.166c0-6.214,0.86-11.406,2.282-15.577c1.413-4.162,3.302-7.235,5.66-9.593l30.361-30.361
		c-10.776-4.716-20.845-9.594-29.97-14.547l-22.65,22.65c-6.137,6.137-10.461,13.61-13.211,21.706
		c-2.758,8.104-3.932,16.675-3.932,25.723c0,20.837,6.367,43.726,17.773,67.006c11.406,23.28,27.996,46.798,49.394,68.19
		c21.152,21.16,44.202,37.443,67.006,48.61c22.812,11.168,45.301,17.22,65.83,17.304c9.125,0,17.935-1.259,26.114-4.094
		c8.18-2.75,15.807-7.235,22.02-13.448L405.093,319.2c-0.062,3.334-0.093,6.114-0.093,8.395c0,17.835-1.981,50.523,23.78,50.523
		c7.027,0,17.834-4.953,17.834-29.716c0-15.231,15.853-10.038,15.853-0.998c0,13.879,0,18.18,0,26.744
		c0,27.742,8.917,37.658,23.779,37.658c14.862,0,25.753-10.9,25.753-36.66c0-25.761,0-80.247,0-115.917
		C512,227.816,478.443,186.425,433.803,171.939z M311.428,213.998c-5.638-4.923-11.26-10.146-16.79-15.684
		c-21.037-21.038-37.858-43.227-49.225-63.557c-11.429-20.27-17.15-38.841-17.058-51.269c0-2.189,0.192-4.124,0.484-5.898
		l7.443-7.443c1.183-1.098,2.519-2.042,4.638-2.75c2.128-0.791,5.039-1.259,8.734-1.259c5.66,0,13.056,1.175,21.467,4.009
		c12.665,4.094,27.612,11.559,43.18,21.867c15.577,10.376,31.776,23.672,47.351,39.248c11.79,11.752,22.175,23.872,31.03,35.808
		C365.738,169.397,337.434,183.014,311.428,213.998z"/>
	<path class="st0" d="M244.806,258.231c9.409,0,17.036-7.626,17.036-17.036c0-9.417-7.627-17.043-17.036-17.043
		c-9.417,0-17.044,7.626-17.044,17.043C227.762,250.605,235.389,258.231,244.806,258.231z"/>
</g>
</svg>