<svg xmlns="http://www.w3.org/2000/svg" viewBox="0 -960 960 960">
  <path
    d="M200-160q-33 0-56.5-23.5T120-240v-560q0-33 23.5-56.5T200-880h560q33 0 56.5 23.5T840-800v284q-10-2-19.5-3t-20.5-1h-40v-280H200v560h124q4 22 10.5 42t17.5 38H200Zm0-120v40-560 520Zm80-40h44q8-49 35-90.5t69-69.5H280v160Zm0-240h160v-160H280v160Zm280 440q-66 0-113-47t-47-113q0-66 47-113t113-47h40q17 0 28.5 11.5T640-400q0 17-11.5 28.5T600-360h-40q-33 0-56.5 23.5T480-280q0 33 23.5 56.5T560-200h40q17 0 28.5 11.5T640-160q0 17-11.5 28.5T600-120h-40Zm-40-440h160v-160H520v160Zm80 320q-17 0-28.5-11.5T560-280q0-17 11.5-28.5T600-320h160q17 0 28.5 11.5T800-280q0 17-11.5 28.5T760-240H600Zm200 120h-40q-17 0-28.5-11.5T720-160q0-17 11.5-28.5T760-200h40q33 0 56.5-23.5T880-280q0-33-23.5-56.5T800-360h-40q-17 0-28.5-11.5T720-400q0-17 11.5-28.5T760-440h40q66 0 113 46.5T960-280q0 66-47 113t-113 47Z" />
</svg>