<svg xmlns="http://www.w3.org/2000/svg" viewBox="0 96 960 960">
  <path
    d="m327.196 577.076 80.239-80.119q8.761-9 8.88-21.381.12-12.38-8.766-21.601-8.875-9.018-21.463-9.018-12.587 0-21.651 9l-98.891 99.13q-10.196 10.304-10.196 24.043 0 13.74 10.196 23.935l98.891 98.892q9 9.239 21.5 9.239t21.5-9.12q9-9.119 8.88-21.119-.119-12-9.119-21l-80-80.881Zm306.608-.119-81.239 81.239q-8.761 9-8.88 20.913-.12 11.913 8.766 20.848 8.875 9.22 21.463 9.229 12.587.01 21.651-9.229l99.891-98.892q10.196-10.304 10.196-24.043 0-13.739-10.196-23.935l-98.891-99.13q-9-9-21-9t-21 9.018q-9 9.221-8.88 21.721.119 12.5 9.119 21.261l79 80ZM182.152 942.696q-28.354 0-48.242-19.959-19.888-19.958-19.888-48.411V278.63q0-28.353 19.888-48.242 19.888-19.888 48.242-19.888h199.022q6.435-35.239 34.152-57.62Q443.043 130.5 480 130.5q36.957 0 64.674 22.38 27.717 22.381 34.152 57.62h199.022q28.452 0 48.411 19.888 19.959 19.889 19.959 48.242v595.696q0 28.453-19.959 48.411-19.959 19.959-48.411 19.959H182.152ZM480 260.913q14.829 0 25.632-10.803t10.803-25.512q0-14.71-10.803-25.632-10.803-10.923-25.632-10.923t-25.632 10.907q-10.803 10.907-10.803 25.528 0 14.829 10.803 25.632T480 260.913Z" />
</svg>